HIERARCHY
ROOT Hips
{
	OFFSET 0.000000 0.000000 0.000000 
	CHANNELS 6 Xposition Yposition Zposition Zrotation Yrotation Xrotation
	JOINT LeftUpLeg
	{
		OFFSET 1.363060 -1.794630 0.839290 
		CHANNELS 3 Zrotation Yrotation Xrotation
		JOINT LeftLeg
		{
			OFFSET 2.448110 -6.726130 0.000000 
			CHANNELS 3 Zrotation Yrotation Xrotation
			JOINT LeftFoot
			{
				OFFSET 2.562200 -7.039590 0.000000 
				CHANNELS 3 Zrotation Yrotation Xrotation
				JOINT LeftToeBase
				{
					OFFSET 0.157640 -0.433110 2.322550 
					CHANNELS 3 Zrotation Yrotation Xrotation
					End Site
					{
						OFFSET 0.000000 0.000000 0.000000 
					}
				}
			}
		}
	}
	JOINT RightUpLeg
	{
		OFFSET -1.305520 -1.794630 0.839290 
		CHANNELS 3 Zrotation Yrotation Xrotation
		JOINT RightLeg
		{
			OFFSET -2.542530 -6.985550 0.000000 
			CHANNELS 3 Zrotation Yrotation Xrotation
			JOINT RightFoot
			{
				OFFSET -2.568260 -7.056230 0.000000 
				CHANNELS 3 Zrotation Yrotation Xrotation
				JOINT RightToeBase
				{
					OFFSET -0.164730 -0.452590 2.363150 
					CHANNELS 3 Zrotation Yrotation Xrotation
					End Site
					{
						OFFSET 0.000000 0.000000 0.000000 
					}
				}
			}
		}
	}
	JOINT Spine
	{
		OFFSET 0.028270 2.035590 -0.193380 
		CHANNELS 3 Zrotation Yrotation Xrotation
		JOINT Spine1
		{
			OFFSET 0.056720 2.048850 -0.042750 
			CHANNELS 3 Zrotation Yrotation Xrotation
			JOINT Neck1
			{
				OFFSET -0.054170 1.746240 0.172020 
				CHANNELS 3 Zrotation Yrotation Xrotation
				JOINT Head
				{
					OFFSET 0.104070 1.761360 -0.123970 
					CHANNELS 3 Zrotation Yrotation Xrotation
					End Site
					{
						OFFSET 0.000000 0.000000 0.000000 
					}
				}
			}
			JOINT LeftArm
			{
				OFFSET 3.362410 1.200890 -0.311210 
				CHANNELS 3 Zrotation Yrotation Xrotation
				JOINT LeftForeArm
				{
					OFFSET 4.983000 -0.000000 -0.000000 
					CHANNELS 3 Zrotation Yrotation Xrotation
					JOINT LeftHand
					{
						OFFSET 3.483560 -0.000000 -0.000000 
						CHANNELS 3 Zrotation Yrotation Xrotation
						JOINT LeftHandIndex1
						{
							OFFSET 0.715260 -0.000000 -0.000000 
							CHANNELS 3 Zrotation Yrotation Xrotation
							End Site
							{
								OFFSET 0.000000 0.000000 0.000000 
							}
						}
					}
				}
			}
			JOINT RightArm
			{
				OFFSET -3.136600 1.374050 -0.404650 
				CHANNELS 3 Zrotation Yrotation Xrotation
				JOINT RightForeArm
				{
					OFFSET -5.241900 -0.000000 -0.000000 
					CHANNELS 3 Zrotation Yrotation Xrotation
					JOINT RightHand
					{
						OFFSET -3.444170 -0.000000 -0.000000 
						CHANNELS 3 Zrotation Yrotation Xrotation
						JOINT RightHandIndex1
						{
							OFFSET -0.622530 -0.000000 -0.000000 
							CHANNELS 3 Zrotation Yrotation Xrotation
							End Site
							{
								OFFSET 0.000000 0.000000 0.000000 
							}
						}
					}
				}
			}
		}
	}
}
MOTION
Frames: 18
Frame Time: 0.041667
9.817033 18.982937 12.294688 6.460971 -7.538470 12.904106 -33.033328 -21.542513 -38.721731 10.166728 15.371089 49.378981 0.384452 -4.863370 -25.987577 0.308600 3.571700 9.874700 18.044055 24.323502 -47.764506 -12.211670 -13.240482 51.783414 -0.592027 5.070781 -33.825498 -0.777700 -5.630400 15.715700 -8.624145 3.050705 35.692333 2.088848 2.649575 -15.665843 0.364661 -1.595965 -35.099393 1.222600 -1.169000 -4.044300 -90.107121 7.358955 26.235111 10.543852 -5.363777 -0.094591 -0.818078 -1.425131 9.197008 -7.125000 0.000000 0.000000 93.597258 -12.870038 -22.495847 -12.494034 12.497881 -2.974712 -3.270755 -5.568711 37.125493 7.125000 0.000000 0.000000 
9.847406 18.909338 12.180238 6.931349 -8.222296 14.800670 -29.764449 -22.977486 -44.259596 10.713994 15.957046 53.069164 0.337852 -4.868884 -25.184455 0.241700 3.163500 8.734300 11.803341 24.027895 -55.887824 -12.165932 -13.986394 56.178413 -0.293988 5.724277 -31.761378 -0.578600 -4.870900 13.540700 -8.927055 3.169271 35.496260 2.020230 2.580817 -15.291596 0.218388 -1.473646 -37.735736 1.200400 -1.109400 -4.843700 -90.532979 11.034847 25.681036 10.737813 -5.309558 -0.116098 -0.715598 -1.441117 8.040963 -7.125000 0.000000 0.000000 94.562357 -15.844793 -26.893467 -12.399630 12.290574 -3.138721 -3.306409 -5.609806 38.380550 7.125000 0.000000 0.000000 
9.878572 18.819363 12.067814 7.342166 -8.727409 16.484305 -26.489119 -24.126593 -49.557889 11.291138 16.357673 56.606822 0.250776 -5.024868 -24.279425 0.202200 2.895500 7.988100 6.594730 22.944218 -62.689634 -12.230698 -14.629430 60.094521 0.023623 6.405343 -29.747835 -0.392000 -4.020200 11.133600 -9.298981 3.226662 35.159119 1.975033 2.459171 -14.800211 0.263212 -1.305572 -40.642981 1.080200 -1.069200 -5.116200 -91.109613 14.726715 25.125648 10.916437 -5.221124 -0.138732 -0.608115 -1.464543 7.091512 -7.125000 0.000000 0.000000 95.660040 -18.860468 -30.457759 -12.418330 12.140680 -3.318494 -3.251698 -5.708761 38.895529 7.125000 0.000000 0.000000 
9.909297 18.713189 11.956886 7.653487 -9.101946 17.964540 -23.304750 -25.008797 -54.557974 11.887380 16.609927 59.975229 0.124139 -5.317683 -23.328627 0.176100 2.703100 7.453200 2.391425 21.590155 -68.342215 -12.415346 -15.213107 63.634265 0.325940 7.046639 -27.956149 -0.236100 -3.127400 8.633600 -9.666178 3.239556 34.932878 1.982917 2.324047 -14.419743 0.140038 -1.246647 -42.446518 1.039300 -1.039100 -5.655600 -91.880716 18.435425 24.585307 11.033612 -5.074135 -0.161054 -0.499546 -1.491474 6.298134 -7.125000 0.000000 0.000000 96.921071 -21.943409 -32.977379 -12.554542 12.056905 -3.506175 -3.093123 -5.871794 38.410735 7.125000 0.000000 0.000000 
9.937910 18.591432 11.847014 7.870012 -9.397619 19.251167 -20.306462 -25.632421 -59.208279 12.493101 16.760387 63.167183 -0.036878 -5.730865 -22.402340 0.148500 2.483500 6.843800 -0.971825 20.259779 -73.068558 -12.717783 -15.745751 66.909951 0.562385 7.574098 -26.537723 -0.132700 -2.347900 6.468100 -9.922423 3.206205 34.763747 2.015594 2.188513 -14.073300 0.016479 -1.224474 -43.881587 0.998300 -1.023900 -6.122500 -92.845471 22.087784 24.052245 11.066899 -4.840195 -0.184513 -0.351500 -1.533464 5.580758 -7.125000 0.000000 0.000000 98.314740 -25.005801 -34.704307 -12.753836 11.989205 -3.692070 -2.852115 -6.076794 37.124578 7.125000 0.000000 0.000000 
9.964233 18.454797 11.738287 8.037316 -9.651404 20.323278 -17.600229 -26.033970 -63.437961 13.100842 16.854375 66.180910 -0.223255 -6.239415 -21.551260 0.120400 2.236700 6.160200 -3.694012 19.061179 -77.057872 -13.126625 -16.228130 70.020642 0.687808 7.910104 -25.605119 -0.077100 -1.791500 4.929700 -10.057798 3.139371 34.691137 2.069201 2.061490 -13.740189 -0.058114 -1.215280 -44.997474 0.969600 -1.020000 -6.522700 -94.008174 25.621575 23.514116 11.011124 -4.533912 -0.210513 -0.145967 -1.579335 4.860126 -7.125000 0.000000 0.000000 99.826508 -27.967983 -35.840028 -12.977249 11.924434 -3.862089 -2.548820 -6.297704 35.182556 7.125000 0.000000 0.000000 
9.988179 18.303900 11.631321 8.164325 -9.868884 21.152001 -15.229581 -26.262878 -67.187987 13.707774 16.925260 69.029020 -0.420212 -6.805528 -20.817341 0.094800 1.985500 5.465600 -5.885269 18.036027 -80.414836 -13.630119 -16.662071 73.030360 0.661698 7.953110 -25.232253 -0.050900 -1.455500 4.003100 -10.029145 3.036306 34.753546 2.111991 1.942488 -13.394008 -0.062318 -1.200577 -45.850399 0.958400 -1.022400 -6.867800 -95.357929 28.971750 22.955644 10.857710 -4.166746 -0.240306 0.117460 -1.618902 4.088600 -7.125000 0.000000 0.000000 101.422615 -30.750363 -36.697055 -13.174341 11.850332 -4.003011 -2.216028 -6.508573 32.900162 7.125000 0.000000 0.000000 
10.010101 18.139269 11.526644 8.250599 -10.041249 21.715423 -13.201438 -26.370406 -70.422345 14.311229 16.992433 71.723519 -0.615447 -7.399119 -20.227297 0.070200 1.709000 4.702200 -7.622322 17.190241 -83.208910 -14.219369 -17.050617 75.986052 0.466476 7.625249 -25.436294 -0.041000 -1.306500 3.592600 -9.820752 2.893680 34.957454 2.124333 1.828208 -13.030773 -0.023721 -1.179634 -46.468259 0.956400 -1.026600 -7.163100 -96.864873 32.084595 22.369154 10.582039 -3.728775 -0.275821 0.423077 -1.659109 3.220878 -7.125000 0.000000 0.000000 103.072033 -33.306206 -37.491009 -13.316117 11.779330 -4.104575 -1.884317 -6.694737 30.499306 7.125000 0.000000 0.000000 
10.030261 17.961784 11.424960 8.324631 -10.174360 22.016537 -11.525623 -26.403993 -73.135997 14.907139 17.063350 74.265539 -0.801208 -8.002198 -19.793285 0.047100 1.401300 3.853800 -9.008485 16.500726 -85.521033 -14.887996 -17.396375 78.920048 0.112379 6.895742 -26.170641 -0.036300 -1.229400 3.380200 -9.494912 2.725085 35.271888 2.111608 1.716791 -12.642000 0.085475 -1.133347 -46.861815 0.968700 -1.028500 -7.405600 -98.478009 34.911231 21.759244 10.142456 -3.191821 -0.313714 0.734000 -1.698695 2.208470 -7.125000 0.000000 0.000000 104.744724 -35.598455 -38.481639 -13.370315 11.722567 -4.141610 -1.587479 -6.837611 28.264454 7.125000 0.000000 0.000000 
10.049102 17.772766 11.326798 8.378040 -10.276050 22.087613 -10.153471 -26.384197 -75.378296 15.492108 17.137764 76.663911 -0.970590 -8.601996 -19.533864 0.030400 1.125700 3.094900 -10.094517 15.973218 -87.422090 -15.630049 -17.693922 81.828713 -0.368228 5.764946 -27.315415 -0.028000 -1.079400 2.967200 -9.098338 2.548271 35.654507 2.055712 1.611504 -12.227470 0.330929 -1.041347 -47.063677 1.012500 -1.030400 -7.594600 -100.121547 37.422403 21.140183 9.510661 -2.540983 -0.348409 1.009567 -1.746405 1.030973 -7.125000 0.000000 0.000000 106.401483 -37.579131 -40.239951 -13.272762 11.675412 -4.088860 -1.384260 -6.919090 26.742409 7.125000 0.000000 0.000000 
10.066973 17.574241 11.232773 8.390492 -10.348104 21.988029 -9.016933 -26.320084 -77.238325 16.064010 17.211796 78.933860 -1.118213 -9.190477 -19.462778 0.024100 1.002300 2.755100 -10.920430 15.607850 -88.991563 -16.433532 -17.935821 84.685578 -0.910463 4.311372 -28.669295 -0.014500 -0.776800 2.134800 -8.659769 2.374205 36.084369 1.939728 1.513875 -11.757767 0.684066 -0.922265 -47.084793 1.078900 -1.039600 -7.719000 -101.723910 39.595003 20.499014 8.705914 -1.802915 -0.373333 1.226126 -1.794978 -0.303875 -7.125000 0.000000 0.000000 108.008105 -39.205927 -43.369784 -12.973234 11.642074 -3.928636 -1.325549 -6.925700 26.432758 7.125000 0.000000 0.000000 
10.083789 17.368672 11.143502 8.367578 -10.400375 21.790170 -8.074812 -26.220004 -78.810177 16.617169 17.280288 81.072342 -1.239714 -9.764176 -19.589542 0.028500 1.089700 2.995700 -11.536920 15.387133 -90.312059 -17.278956 -18.118442 87.459294 -1.444479 2.648534 -30.008430 -0.001500 -0.250900 0.689500 -8.240833 2.217487 36.510058 1.771090 1.427517 -11.232996 1.185464 -0.761538 -46.989922 1.177300 -1.056200 -7.785300 -103.243492 41.449781 19.805288 7.793705 -1.037954 -0.384116 1.353636 -1.850242 -1.805748 -7.125000 0.000000 0.000000 109.559674 -40.507295 -48.356402 -12.473072 11.643928 -3.669093 -1.437413 -6.848982 27.628978 7.125000 0.000000 0.000000 
10.099195 17.158437 11.059778 8.310902 -10.445998 21.563259 -7.284041 -26.084508 -80.184867 17.143394 17.339129 83.068419 -1.330689 -10.318321 -19.921574 0.045900 1.383400 3.804300 -12.015545 15.306465 -91.447447 -18.120651 -18.236409 90.058504 -1.902054 0.965099 -31.138664 -0.000300 0.117500 -0.322800 -7.868972 2.090724 36.896743 1.566834 1.360621 -10.674944 1.796348 -0.573411 -46.843314 1.300000 -1.079700 -7.805000 -104.658345 43.014638 19.029169 6.858854 -0.307827 -0.381399 1.392077 -1.906928 -3.474160 -7.125000 0.000000 0.000000 111.097227 -41.576036 -55.203229 -11.851581 11.736869 -3.341691 -1.673483 -6.694871 30.036566 7.125000 0.000000 0.000000 
10.113017 16.945913 10.981953 8.247725 -10.492553 21.358941 -6.636405 -25.931587 -81.429541 17.637105 17.386360 84.912858 -1.387599 -10.844398 -20.442067 0.081700 1.844100 5.075100 -12.426276 15.327155 -92.442694 -18.906224 -18.296279 92.387870 -2.255775 -0.555289 -32.049797 -0.000800 0.180200 -0.495000 -7.598327 2.003794 37.226660 1.376394 1.315531 -10.136776 2.330166 -0.432702 -46.614471 1.399000 -1.114300 -7.765100 -105.970966 44.331857 18.126667 5.973985 0.351844 -0.372777 1.381837 -1.959625 -5.251729 -7.125000 0.000000 0.000000 112.705660 -42.548187 -63.487797 -11.213230 11.973626 -2.989630 -1.974502 -6.482633 32.995302 7.125000 0.000000 0.000000 
10.125431 16.732861 10.910730 8.201947 -10.529493 21.205485 -6.134204 -25.792987 -82.576657 18.093207 17.421582 86.594019 -1.404905 -11.319246 -21.124663 0.134400 2.362700 6.509000 -12.815495 15.399074 -93.313351 -19.585187 -18.314678 94.341526 -2.527932 -1.877173 -32.825695 -0.000200 -0.082500 0.226700 -7.425385 1.950361 37.481845 1.217963 1.291780 -9.656373 2.744526 -0.336444 -46.413204 1.468200 -1.148700 -7.705800 -107.193861 45.433486 17.067826 5.217659 0.892518 -0.364166 1.336056 -2.016995 -7.112843 -7.125000 0.000000 0.000000 114.481850 -43.532805 -72.463302 -10.646481 12.362495 -2.652641 -2.274030 -6.247865 35.682521 7.125000 0.000000 0.000000 
10.136435 16.520513 10.846110 8.162633 -10.534265 21.111744 -5.736902 -25.695042 -83.648635 18.509381 17.444834 88.111810 -1.376543 -11.711252 -21.941280 0.194100 2.837500 7.826600 -13.225800 15.484099 -94.065421 -20.083663 -18.273478 95.903696 -2.399809 -1.355592 -32.625995 -0.007200 -0.546400 1.501600 -7.268383 1.908627 37.673450 1.095202 1.289501 -9.282105 2.920514 -0.329964 -46.305791 1.486700 -1.184000 -7.656200 -108.327608 46.343308 15.882833 4.615685 1.311218 -0.360321 1.262555 -2.094043 -8.990532 -7.125000 0.000000 0.000000 116.491211 -44.575220 -81.311322 -10.198845 12.865031 -2.354325 -2.517046 -6.030858 37.444102 7.125000 0.000000 0.000000 
10.146560 16.309838 10.787741 8.134717 -10.502051 21.079006 -5.410095 -25.654829 -84.669947 18.889045 17.456908 89.480975 -1.301623 -11.993269 -22.843697 0.244700 3.183300 8.789600 -13.614142 15.552488 -94.703172 -20.439423 -18.226105 97.042772 -2.257115 -0.619316 -32.510973 -0.026100 -1.043100 2.867300 -7.080000 1.863181 37.798691 1.012102 1.305392 -9.032840 2.908597 -0.404803 -46.404344 1.475700 -1.226200 -7.661400 -109.364657 47.073108 14.654175 4.156128 1.630736 -0.359393 1.163817 -2.185698 -10.795078 -7.125000 0.000000 0.000000 118.739318 -45.640422 -89.081413 -9.889238 13.413189 -2.106273 -2.678564 -5.871201 37.798130 7.125000 0.000000 0.000000 
10.155628 16.102509 10.734214 8.112878 -10.433279 21.094803 -5.110555 -25.664282 -85.663515 19.241308 17.459919 90.731870 -1.183793 -12.137848 -23.767314 0.276400 3.381900 9.343800 -13.955149 15.593987 -95.233490 -20.675762 -18.184720 97.824562 -2.133392 0.164202 -32.576873 -0.048300 -1.419000 3.902400 -6.845759 1.803999 37.878610 0.954882 1.332270 -8.945837 2.817371 -0.528165 -46.641553 1.464100 -1.275200 -7.703500 -110.268037 47.625876 13.523805 3.779254 1.908415 -0.361010 1.032550 -2.294423 -12.373219 -7.125000 0.000000 0.000000 121.060772 -46.596555 -95.569698 -9.676946 13.899723 -1.908856 -2.783989 -5.754071 37.305948 7.125000 0.000000 0.000000 
